<svg width="46" height="46" viewBox="0 0 46 46" fill="none" xmlns="http://www.w3.org/2000/svg">
<path d="M32.9465 10.3672C32.0106 10.3672 31.1418 10.8524 30.6515 11.65L25.3698 19.4916C25.1977 19.75 25.2676 20.0985 25.526 20.2705C25.7355 20.4102 26.0126 20.3929 26.2034 20.2288L31.4023 15.7195C31.4887 15.6417 31.6219 15.6496 31.6997 15.736C31.7349 15.7756 31.7536 15.8267 31.7536 15.8793V29.9975C31.7536 30.1141 31.6593 30.2077 31.5427 30.2077C31.4801 30.2077 31.4211 30.1803 31.3815 30.1321L15.6659 11.3203C15.1541 10.7163 14.4025 10.3679 13.6114 10.3672H13.0621C11.5756 10.3672 10.3705 11.5723 10.3705 13.0588V32.9432C10.3705 34.4297 11.5756 35.6348 13.0621 35.6348C13.9979 35.6348 14.8668 35.1496 15.3571 34.352L20.6388 26.5104C20.8108 26.2519 20.741 25.9035 20.4826 25.7315C20.2731 25.5918 19.9959 25.6091 19.8052 25.7732L14.6062 30.2825C14.5198 30.3603 14.3867 30.3524 14.3089 30.266C14.2736 30.2264 14.2549 30.1753 14.2556 30.1227V16.0009C14.2556 15.8843 14.35 15.7907 14.4666 15.7907C14.5285 15.7907 14.5882 15.8181 14.6278 15.8663L30.3413 34.6817C30.8531 35.2857 31.6046 35.6341 32.3958 35.6348H32.945C34.4316 35.6355 35.6374 34.4312 35.6388 32.9446V13.0588C35.6388 11.5723 34.4337 10.3672 32.9472 10.3672H32.9465Z" fill="#6CE89E"/>
</svg>
