<svg width="40" height="40" viewBox="0 0 40 40" fill="none" xmlns="http://www.w3.org/2000/svg">
<rect width="40" height="40" rx="4" fill="#013330"/>
<g clip-path="url(#clip0_501_6237)">
<path d="M31.213 32.0422L25.6319 30.386L21.4232 32.8934L18.4867 32.8922L14.2754 30.386L8.69696 32.0422L7 26.333L8.69696 19.9967L7 14.6396L8.69696 8L17.4137 13.1903H22.496L31.213 8L32.9099 14.6396L31.213 19.9967L32.9099 26.333L31.213 32.0422Z" fill="#FF5C16"/>
<path d="M8.69727 8L17.4142 13.194L17.0676 16.7586L8.69727 8ZM14.2759 26.3354L18.1113 29.2473L14.2759 30.386V26.3354ZM17.8048 21.5213L17.0676 16.7609L12.3492 19.9982L12.3466 19.9969V19.9993L12.3613 23.3314L14.2746 21.5215L17.8048 21.5213ZM31.2122 8L22.4952 13.194L22.8407 16.7586L31.2122 8ZM25.6337 26.3354L21.7982 29.2473L25.6337 30.386V26.3354ZM27.5615 19.9991V19.9967L27.5604 19.998L22.842 16.7609L22.1048 21.5213H25.6335L27.5482 23.331L27.5615 19.9991Z" fill="#FF5C16"/>
<path d="M14.2754 30.3859L8.69696 32.0421L7 26.3353H14.2754V30.3859ZM17.8043 21.52L18.8699 28.4021L17.393 24.5755L12.3597 23.331L14.2741 21.5202H17.8043V21.52ZM25.6343 30.3859L31.213 32.0421L32.9099 26.3353H25.6343V30.3859ZM22.1056 21.52L21.04 28.4021L22.5167 24.5755L27.5503 23.331L25.6345 21.5202H22.1056V21.52Z" fill="#E34807"/>
<path d="M7 26.3331L8.69696 19.9968H12.3461L12.3595 23.33L17.3932 24.5746L18.8699 28.401L18.1108 29.2437L14.2754 26.3319H7V26.3331ZM32.9099 26.3331L31.213 19.9968H27.5636L27.5503 23.33L22.5169 24.5746L21.04 28.401L21.7989 29.2437L25.6345 26.3319H32.9099V26.3331ZM22.496 13.1904H17.4137L17.0686 16.755L18.8701 28.3974H21.04L22.8426 16.755L22.496 13.1904Z" fill="#FF8D5D"/>
<path d="M8.69696 8L7 14.6396L8.69696 19.9967H12.3461L17.0671 16.7586L8.69696 8ZM16.7496 22.9024H15.0964L14.1963 23.7818L17.3943 24.5719L16.7496 22.9013V22.9024ZM31.213 8L32.9099 14.6396L31.213 19.9967H27.5636L22.8428 16.7586L31.213 8ZM23.1627 22.9024H24.8182L25.7184 23.7828L22.5167 24.5745L23.1627 22.9011V22.9024ZM21.4219 30.6223L21.7991 29.246L21.04 28.4033H18.8685L18.1095 29.246L18.4865 30.6223" fill="#661800"/>
<path d="M21.4216 30.6221V32.8945H18.4863V30.6221H21.4216Z" fill="#C0C4CD"/>
<path d="M14.2773 30.3838L18.4897 32.8937V30.6212L18.1125 29.2451L14.2773 30.3838ZM25.6351 30.3838L21.4226 32.8937V30.6212L21.7998 29.2451L25.6351 30.3838Z" fill="#E7EBF6"/>
</g>
<defs>
<clipPath id="clip0_501_6237">
<rect width="26" height="25" fill="white" transform="translate(7 8)"/>
</clipPath>
</defs>
</svg>
