<svg width="40" height="40" viewBox="0 0 40 40" fill="none" xmlns="http://www.w3.org/2000/svg">
<rect width="40" height="40" rx="4" fill="#6CE89E"/>
<path d="M26.6327 12.2456C26.0088 12.2456 25.4295 12.5691 25.1027 13.1008L21.5816 18.3285C21.4669 18.5008 21.5134 18.7331 21.6857 18.8478C21.8254 18.9409 22.0101 18.9294 22.1373 18.82L25.6033 15.8138C25.6609 15.762 25.7496 15.7672 25.8015 15.8248C25.825 15.8512 25.8375 15.8853 25.8375 15.9203V25.3324C25.8375 25.4102 25.7746 25.4726 25.6969 25.4726C25.6551 25.4726 25.6158 25.4543 25.5894 25.4222L15.1123 12.881C14.7711 12.4784 14.27 12.2461 13.7426 12.2456H13.3764C12.3854 12.2456 11.582 13.049 11.582 14.04V27.2963C11.582 28.2873 12.3854 29.0907 13.3764 29.0907C14.0003 29.0907 14.5796 28.7672 14.9064 28.2355L18.4276 23.0077C18.5423 22.8354 18.4957 22.6032 18.3234 22.4885C18.1838 22.3954 17.999 22.4069 17.8718 22.5163L14.4059 25.5225C14.3483 25.5743 14.2595 25.569 14.2077 25.5115C14.1841 25.4851 14.1717 25.451 14.1721 25.416V16.0014C14.1721 15.9237 14.235 15.8613 14.3128 15.8613C14.354 15.8613 14.3939 15.8795 14.4203 15.9117L24.8959 28.4553C25.2371 28.8579 25.7381 29.0902 26.2656 29.0907H26.6317C27.6228 29.0912 28.4266 28.2883 28.4276 27.2972V14.04C28.4276 13.049 27.6242 12.2456 26.6332 12.2456H26.6327Z" fill="black"/>
</svg>
