<svg width="32" height="32" viewBox="0 0 32 32" fill="none" xmlns="http://www.w3.org/2000/svg">
<rect width="32" height="32" rx="4" fill="#161616"/>
<path d="M10.5034 8.21659L16.0761 5L21.6488 8.21659L19.6 9.40488L16.0761 7.37659L12.5522 9.40488L10.5034 8.21659ZM21.6488 12.2732L19.6 11.0849L16.0761 13.1132L12.5522 11.0849L10.5034 12.2732V14.6498L14.0273 16.678V20.7346L16.0761 21.9229L18.1249 20.7346V16.678L21.6488 14.6498V12.2732ZM21.6488 18.7064V16.3298L19.6 17.518V19.8946L21.6488 18.7064ZM23.1034 19.5463L19.5795 21.5746V23.9512L25.1522 20.7346V14.3014L23.1034 15.4898V19.5463ZM21.0547 10.2449L23.1034 11.4332V13.8098L25.1522 12.6215V10.2449L23.1034 9.05659L21.0547 10.2449ZM14.0273 22.4352V24.8118L16.0761 26L18.1249 24.8118V22.4352L16.0761 23.6234L14.0273 22.4352ZM10.5034 18.7064L12.5522 19.8946V17.518L10.5034 16.3298V18.7064ZM14.0273 10.2449L16.0761 11.4332L18.1249 10.2449L16.0761 9.05659L14.0273 10.2449ZM9.04878 11.4332L11.0976 10.2449L9.04878 9.05659L7 10.2449V12.6215L9.04878 13.8098V11.4332ZM9.04878 15.4898L7 14.3014V20.7346L12.5727 23.9512V21.5746L9.04878 19.5463V15.4898Z" fill="#89898A"/>
</svg>
