<svg width="18" height="18" viewBox="0 0 18 18" fill="none" xmlns="http://www.w3.org/2000/svg">
<rect width="18" height="18" rx="2" fill="#161616"/>
<path d="M8.71875 3.375C5.61215 3.375 3.09375 5.8934 3.09375 9C3.09375 12.1066 5.61215 14.625 8.71875 14.625C11.8253 14.625 14.3437 12.1066 14.3437 9C14.3437 5.8934 11.8253 3.375 8.71875 3.375ZM8.71875 11.864V14.2129C6.48836 14.2129 4.68029 12.4048 4.68029 10.1744C4.68029 7.94407 6.48836 6.13599 8.71875 6.13599V3.78709C10.9491 3.78709 12.7572 5.59517 12.7572 7.82555C12.7572 10.0559 10.9491 11.864 8.71875 11.864ZM10.6556 8.98198V9.018C9.80184 9.44347 9.16222 10.0831 8.73675 10.9368H8.70076C8.27527 10.0831 7.63565 9.44347 6.78194 9.018V8.98198C7.63565 8.5565 8.27527 7.9169 8.70076 7.06319H8.73675C9.16222 7.9169 9.80184 8.5565 10.6556 8.98198Z" fill="#89898A"/>
</svg>
