<svg width="32" height="32" viewBox="0 0 32 32" fill="none" xmlns="http://www.w3.org/2000/svg">
<rect width="32" height="32" rx="4" fill="#161616"/>
<path d="M22.3433 7.94702C21.7465 7.94702 21.1925 8.25642 20.8799 8.76505L17.5118 13.7655C17.4021 13.9303 17.4466 14.1525 17.6114 14.2622C17.745 14.3512 17.9217 14.3402 18.0434 14.2356L21.3586 11.3601C21.4137 11.3105 21.4987 11.3155 21.5482 11.3706C21.5707 11.3959 21.5827 11.4285 21.5827 11.462V20.4649C21.5827 20.5392 21.5225 20.5989 21.4482 20.5989C21.4082 20.5989 21.3706 20.5815 21.3453 20.5507L11.3238 8.5548C10.9974 8.16966 10.5182 7.94748 10.0137 7.94702H9.66341C8.71547 7.94702 7.94702 8.71547 7.94702 9.66341V22.3433C7.94702 23.2912 8.71547 24.0597 9.66341 24.0597C10.2602 24.0597 10.8143 23.7503 11.1269 23.2417L14.4949 18.2412C14.6046 18.0764 14.5601 17.8543 14.3953 17.7445C14.2617 17.6555 14.085 17.6665 13.9633 17.7712L10.6481 20.6467C10.593 20.6962 10.5081 20.6912 10.4585 20.6361C10.436 20.6109 10.4241 20.5783 10.4245 20.5447V11.5396C10.4245 11.4652 10.4847 11.4055 10.559 11.4055C10.5985 11.4055 10.6366 11.423 10.6618 11.4537L20.682 23.4519C21.0084 23.8371 21.4876 24.0592 21.9921 24.0597H22.3424C23.2903 24.0602 24.0592 23.2922 24.0602 22.3442V9.66341C24.0602 8.71547 23.2917 7.94702 22.3438 7.94702H22.3433Z" fill="#89898A"/>
</svg>
