<svg width="32" height="32" viewBox="0 0 32 32" fill="none" xmlns="http://www.w3.org/2000/svg">
<rect width="32" height="32" rx="4" fill="#161616"/>
<g clip-path="url(#clip0_3710_1595)">
<path d="M8.73832 21.9992C7.3458 21.9992 6.20561 21.6884 5.31776 21.0666C4.43925 20.436 4 19.53 4 18.3664C4.00494 18.0658 4.03306 17.766 4.08411 17.4693C4.23365 16.6699 4.4486 15.7106 4.72897 14.5825C5.52336 11.527 7.57632 9.99925 10.8879 9.99925C11.7176 9.98484 12.5416 10.133 13.3084 10.4345C13.9897 10.6893 14.5754 11.1316 14.9907 11.7047C15.4019 12.2642 15.6075 12.9304 15.6075 13.7032C15.6017 13.9978 15.5735 14.2917 15.5234 14.5825C15.3458 15.5685 15.1402 16.5366 14.8879 17.4693C14.4766 18.9881 13.7757 20.134 12.7664 20.889C11.7664 21.6351 10.4206 21.9992 8.73832 21.9992ZM8.99065 19.601C9.59705 19.615 10.1882 19.4193 10.6542 19.0503C11.1215 18.6861 11.4579 18.1266 11.6542 17.3627C11.9252 16.3146 12.1308 15.4086 12.271 14.6269C12.32 14.3899 12.345 14.149 12.3458 13.9075C12.3458 12.8949 11.7944 12.3886 10.6822 12.3886C10.0704 12.3761 9.47395 12.5714 9 12.9393C8.54206 13.3035 8.21495 13.8631 8.01869 14.6269C7.80374 15.373 7.59813 16.279 7.38318 17.3627C7.33377 17.5936 7.30873 17.8287 7.30841 18.0644C7.29907 19.0947 7.86916 19.601 8.99065 19.601Z" fill="#89898A"/>
<path d="M16.4204 21.8401C16.3646 21.8436 16.3087 21.8351 16.2569 21.8151C16.2051 21.7951 16.1587 21.7641 16.1214 21.7246C16.0646 21.6338 16.0447 21.5264 16.0653 21.4226L18.4859 10.5862C18.4949 10.5257 18.517 10.4677 18.5508 10.4157C18.5846 10.3637 18.6293 10.3189 18.6821 10.2842C18.7762 10.2087 18.8955 10.1678 19.0186 10.1687H23.6821C24.9812 10.1687 26.0186 10.4263 26.8036 10.9326C27.598 11.4478 27.9999 12.185 27.9999 13.1532C27.9965 13.4459 27.962 13.7375 27.8971 14.0236C27.6074 15.3027 27.0186 16.2442 26.1214 16.8571C25.2429 17.47 24.0373 17.772 22.5046 17.772H20.1401L19.3363 21.4226C19.3142 21.5435 19.2439 21.6517 19.1401 21.7246C19.046 21.8001 18.9267 21.841 18.8036 21.8401H16.4204ZM22.6261 15.4715C23.0856 15.4828 23.5361 15.3484 23.9064 15.0895C24.287 14.8214 24.5499 14.4292 24.6447 13.9881C24.6795 13.8243 24.6983 13.6578 24.7008 13.4907C24.7008 13.1709 24.598 12.9222 24.4018 12.7535C24.2055 12.5758 23.8597 12.487 23.3831 12.487H21.2803L20.6167 15.4715H22.6261Z" fill="#89898A"/>
</g>
<defs>
<clipPath id="clip0_3710_1595">
<rect width="24" height="12" fill="white" transform="translate(4 10)"/>
</clipPath>
</defs>
</svg>
