<svg width="16" height="16" viewBox="0 0 16 16" fill="none" xmlns="http://www.w3.org/2000/svg">
<rect width="16" height="16" rx="2" fill="black"/>
<g clip-path="url(#clip0_619_2168)">
<path d="M8.73995 8.76005L8.25595 10.0881C8.24395 10.1241 8.24395 10.1641 8.25595 10.2041L9.08795 12.4881L10.0519 11.9321L8.89595 8.76005C8.86795 8.68805 8.76795 8.68805 8.73995 8.76005Z" fill="white"/>
<path d="M9.71199 6.52763C9.68399 6.45563 9.58399 6.45563 9.55599 6.52763L9.07199 7.85563C9.05999 7.89163 9.05999 7.93163 9.07199 7.97163L10.436 11.7116L11.4 11.1556L9.71199 6.53163V6.52763Z" fill="white"/>
<path d="M7.99999 3.62C8.02399 3.62 8.04799 3.628 8.06799 3.64L11.74 5.76C11.784 5.784 11.808 5.832 11.808 5.88V10.12C11.808 10.168 11.78 10.216 11.74 10.24L8.06799 12.36C8.04799 12.372 8.02399 12.38 7.99999 12.38C7.97599 12.38 7.95199 12.372 7.93199 12.36L4.25999 10.24C4.21599 10.216 4.19199 10.168 4.19199 10.12V5.876C4.19199 5.828 4.21999 5.78 4.25999 5.756L7.93199 3.636C7.95199 3.624 7.97599 3.616 7.99999 3.616V3.62ZM7.99999 3C7.86799 3 7.73999 3.032 7.61999 3.1L3.94799 5.22C3.71199 5.356 3.56799 5.604 3.56799 5.876V10.116C3.56799 10.388 3.71199 10.636 3.94799 10.772L7.61999 12.892C7.73599 12.96 7.86799 12.992 7.99999 12.992C8.13199 12.992 8.25999 12.96 8.37999 12.892L12.052 10.772C12.288 10.636 12.432 10.388 12.432 10.116V5.876C12.432 5.604 12.288 5.356 12.052 5.22L8.37599 3.1C8.25999 3.032 8.12799 3 7.99599 3H7.99999Z" fill="white"/>
<path d="M7.688 5.57627H6.756C6.688 5.57627 6.624 5.62027 6.6 5.68427L4.604 11.1563L5.568 11.7123L7.768 5.68427C7.788 5.62827 7.748 5.57227 7.692 5.57227L7.688 5.57627Z" fill="white"/>
<path d="M9.32003 5.57627H8.38803C8.32003 5.57627 8.25603 5.62027 8.23203 5.68427L5.95203 11.9323L6.91603 12.4883L9.39603 5.68427C9.41603 5.62827 9.37603 5.57227 9.32003 5.57227V5.57627Z" fill="white"/>
</g>
<defs>
<clipPath id="clip0_619_2168">
<rect width="10" height="10" fill="white" transform="translate(3 3)"/>
</clipPath>
</defs>
</svg>
