<svg width="16" height="16" viewBox="0 0 16 16" fill="none" xmlns="http://www.w3.org/2000/svg">
<rect width="16" height="16" rx="2" fill="black"/>
<path d="M5.85839 11.8893H4.11084C3.74363 11.8893 3.56225 11.8893 3.45164 11.8227C3.33219 11.7501 3.25918 11.6294 3.25034 11.4964C3.2437 11.3738 3.3344 11.2242 3.51579 10.9249L7.83069 3.77913C8.01429 3.47569 8.1072 3.32397 8.22445 3.26786C8.35053 3.20759 8.50095 3.20759 8.62704 3.26786C8.74429 3.32397 8.83719 3.47569 9.02079 3.77913L9.90784 5.23397C10.1091 5.56443 10.2109 5.7307 10.2551 5.90528C10.3038 6.0944 10.3038 6.29392 10.2551 6.48305C10.2109 6.65763 10.1113 6.8239 9.91005 7.15435L7.64353 10.9187C7.44003 11.2533 7.33827 11.4216 7.1967 11.5483C7.04406 11.6855 6.86047 11.7853 6.65916 11.8414C6.47556 11.8893 6.26984 11.8893 5.85839 11.8893Z" fill="#EB4C51"/>
<path d="M12.2237 11.8896H9.98271C9.6521 11.8896 9.48582 11.8896 9.38882 11.8285C9.28191 11.7615 9.21659 11.6485 9.20867 11.5262C9.20273 11.4133 9.28588 11.2755 9.45216 10.9981L10.5706 9.14234C10.735 8.86876 10.8181 8.73292 10.9211 8.68126C11.0339 8.62578 11.1665 8.62578 11.2794 8.68126C11.3844 8.73292 11.4655 8.86876 11.6318 9.14043L12.7543 10.9962C12.9205 11.2736 13.0057 11.4114 12.9997 11.5242C12.9938 11.6467 12.9264 11.7596 12.8196 11.8265C12.7206 11.8896 12.5542 11.8896 12.2237 11.8896Z" fill="#EB4C51"/>
</svg>
