<svg width="16" height="16" viewBox="0 0 16 16" fill="none" xmlns="http://www.w3.org/2000/svg">
<rect width="16" height="16" rx="2" fill="#0052FF"/>
<g clip-path="url(#clip0_619_2095)">
<path d="M7.99071 13.3337C9.02604 13.3318 10.0384 13.0287 10.9044 12.4612C11.7703 11.8937 12.4524 11.0865 12.8674 10.138C13.2823 9.18944 13.4122 8.14064 13.2413 7.11953C13.0703 6.09843 12.6058 5.14916 11.9045 4.38756C11.2031 3.62595 10.2953 3.08494 9.29173 2.83053C8.28816 2.57611 7.23223 2.6193 6.25278 2.95482C5.27333 3.29033 4.41271 3.90367 3.77592 4.72C3.13914 5.53634 2.75372 6.52036 2.66669 7.55202H9.72843V8.44864H2.66669C2.78057 9.78192 3.39092 11.0238 4.37689 11.9285C5.36287 12.8332 6.65259 13.3347 7.99071 13.3337Z" fill="white"/>
</g>
<defs>
<clipPath id="clip0_619_2095">
<rect width="10.6667" height="10.6667" fill="white" transform="translate(2.66669 2.66699)"/>
</clipPath>
</defs>
</svg>
