<svg width="16" height="16" viewBox="0 0 16 16" fill="none" xmlns="http://www.w3.org/2000/svg">
<rect width="16" height="16" rx="2" fill="#F0B90B"/>
<path d="M4.12558 7.8797L4.13178 10.1543L6.0645 11.2916V12.6233L3.00069 10.8263V7.21456L4.12558 7.8797ZM4.12558 5.60511V6.93058L3 6.26474V4.93927L4.12558 4.27344L5.25667 4.93927L4.12558 5.60511ZM6.87164 4.93927L7.99722 4.27344L9.12831 4.93927L7.99722 5.60511L6.87164 4.93927Z" fill="white"/>
<path d="M4.93896 9.68284V8.35117L6.06454 9.017V10.3425L4.93896 9.68284ZM6.87168 11.7686L7.99726 12.4344L9.12835 11.7686V13.094L7.99726 13.7599L6.87168 13.094V11.7686ZM10.7426 4.93927L11.8682 4.27344L12.9993 4.93927V6.26474L11.8682 6.93058V5.60511L10.7426 4.93927ZM11.8682 10.1543L11.8744 7.8797L13 7.21387V10.8257L9.93618 12.6226V11.2909L11.8682 10.1543Z" fill="white"/>
<path d="M11.061 9.68323L9.93542 10.3429V9.0174L11.061 8.35156V9.68323Z" fill="white"/>
<path d="M11.0611 6.07704L11.0673 7.40871L9.12904 8.54601V10.8261L8.00346 11.4858L6.87788 10.8261V8.54601L4.93965 7.40871V6.07704L6.07006 5.4112L7.99657 6.55401L9.9348 5.4112L11.0659 6.07704H11.0611ZM4.93896 3.80313L7.99726 2L11.0611 3.80313L9.93549 4.46897L7.99726 3.32616L6.06454 4.46897L4.93896 3.80313Z" fill="white"/>
</svg>
