<svg width="16" height="16" viewBox="0 0 16 16" fill="none" xmlns="http://www.w3.org/2000/svg">
<rect width="16" height="16" rx="2" fill="black"/>
<g clip-path="url(#clip0_619_2160)">
<path d="M5.93925 8.69404C6.22663 8.69404 6.50701 8.59825 6.73364 8.42302L4.91121 6.60059C4.47196 7.16834 4.5771 7.9861 5.14486 8.42535C5.37383 8.59825 5.65187 8.69404 5.93925 8.69404Z" fill="white"/>
<path d="M11.3598 7.39205C11.3598 7.10467 11.264 6.82429 11.0888 6.59766L9.26636 8.42009C9.83411 8.85934 10.6495 8.7542 11.0888 8.18644C11.264 7.95981 11.3598 7.67943 11.3598 7.39205Z" fill="white"/>
<path d="M12.278 5.40918L11.472 6.21525C12.1215 6.99329 12.0187 8.15217 11.2407 8.8017C10.5584 9.3718 9.56776 9.3718 8.88551 8.8017L8 9.68722L7.11682 8.80404C6.33879 9.45357 5.17991 9.35077 4.53037 8.57273C3.96028 7.89049 3.96028 6.89983 4.53037 6.21759L4.11682 5.80404L3.7243 5.40918C3.25 6.18955 3 7.08675 3 8.0003C3 10.762 5.23832 13.0003 8 13.0003C10.7617 13.0003 13 10.762 13 8.0003C13.0023 7.08675 12.75 6.18955 12.278 5.40918Z" fill="white"/>
<path d="M11.6168 4.54873C9.71262 2.55107 6.54907 2.4763 4.55141 4.38051C4.493 4.43658 4.43692 4.49266 4.38318 4.54873C4.25935 4.67957 4.14253 4.81509 4.03271 4.95761L8 8.92724L11.9673 4.95761C11.8598 4.81509 11.7407 4.67957 11.6168 4.54873ZM8 3.65387C9.16823 3.65387 10.257 4.10481 11.0748 4.92724L8 8.002L4.92524 4.92724C5.743 4.10481 6.83178 3.65387 8 3.65387Z" fill="white"/>
</g>
<defs>
<clipPath id="clip0_619_2160">
<rect width="10" height="10" fill="white" transform="translate(3 3)"/>
</clipPath>
</defs>
</svg>
