<svg width="16" height="16" viewBox="0 0 16 16" fill="none" xmlns="http://www.w3.org/2000/svg">
<rect width="16" height="16" rx="3" fill="black"/>
<path d="M11.1713 3.97266C10.873 3.97266 10.5959 4.12736 10.4396 4.38167L8.75559 6.88189C8.70074 6.96429 8.723 7.07538 8.8054 7.13024C8.87219 7.17476 8.96056 7.16925 9.02139 7.11692L10.679 5.67918C10.7066 5.65439 10.749 5.65691 10.7738 5.68446C10.7851 5.69708 10.791 5.71338 10.791 5.73013V10.2316C10.791 10.2688 10.761 10.2986 10.7238 10.2986C10.7038 10.2986 10.685 10.2899 10.6724 10.2745L5.66159 4.27655C5.4984 4.08398 5.25878 3.97289 5.00653 3.97266H4.8314C4.35743 3.97266 3.97321 4.35688 3.97321 4.83085V11.1708C3.97321 11.6448 4.35743 12.029 4.8314 12.029C5.12978 12.029 5.40682 11.8743 5.56313 11.62L7.24715 9.11976C7.30201 9.03736 7.27975 8.92627 7.19735 8.87141C7.13056 8.82689 7.04219 8.8324 6.98136 8.88473L5.32373 10.3225C5.29619 10.3473 5.25373 10.3447 5.22894 10.3172C5.21769 10.3046 5.21172 10.2883 5.21195 10.2715V5.76892C5.21195 5.73174 5.24202 5.7019 5.2792 5.7019C5.29894 5.7019 5.31799 5.71062 5.33062 5.726L10.3407 11.7251C10.5039 11.9177 10.7435 12.0288 10.9958 12.029H11.1709C11.6449 12.0292 12.0293 11.6452 12.0298 11.1713V4.83085C12.0298 4.35688 11.6455 3.97266 11.1716 3.97266H11.1713Z" fill="#6CE89E"/>
</svg>
