<svg width="16" height="16" viewBox="0 0 16 16" fill="none" xmlns="http://www.w3.org/2000/svg">
<rect width="16" height="16" rx="2" fill="#FF0420"/>
<g clip-path="url(#clip0_685_897)">
<path d="M1 8C1 4.134 4.134 1 8 1C11.866 1 15 4.134 15 8C15 11.866 11.866 15 8 15C4.134 15 1 11.866 1 8Z" fill="white"/>
<path d="M8 1C4.134 1 1 4.134 1 8C1 11.866 4.134 15 8 15C11.866 15 15 11.866 15 8C15 4.134 11.866 1 8 1ZM8 11.5641V14.4872C5.22441 14.4872 2.97436 12.2371 2.97436 9.46153C2.97436 6.68596 5.22441 4.4359 8 4.4359V1.51282C10.7756 1.51282 13.0256 3.76287 13.0256 6.53846C13.0256 9.31404 10.7756 11.5641 8 11.5641ZM10.4102 7.97758V8.0224C9.34785 8.55188 8.55188 9.34785 8.0224 10.4102H7.97761C7.44811 9.34785 6.65214 8.55188 5.58975 8.0224V7.97758C6.65214 7.44809 7.44811 6.65214 7.97761 5.58975H8.0224C8.55188 6.65214 9.34785 7.44809 10.4102 7.97758Z" fill="#FF0420"/>
</g>
<defs>
<clipPath id="clip0_685_897">
<rect width="14" height="14" fill="white" transform="translate(1 1)"/>
</clipPath>
</defs>
</svg>
