<svg width="16" height="16" viewBox="0 0 16 16" fill="none" xmlns="http://www.w3.org/2000/svg">
<rect width="16" height="16" rx="2" fill="#EA3431"/>
<g clip-path="url(#clip0_619_2146)">
<path d="M4.36916 10.9995C3.6729 10.9995 3.1028 10.8441 2.65888 10.5332C2.21963 10.2179 2 9.76486 2 9.18307C2.00247 9.03278 2.01653 8.88286 2.04206 8.73451C2.11682 8.33481 2.2243 7.85516 2.36449 7.29114C2.76168 5.76338 3.78816 4.9995 5.44393 4.9995C5.85879 4.9923 6.27078 5.06638 6.65421 5.21712C6.99483 5.34455 7.2877 5.56568 7.49533 5.8522C7.70094 6.132 7.80374 6.46508 7.80374 6.85146C7.80083 6.99879 7.78677 7.14573 7.76168 7.29114C7.6729 7.78411 7.57009 8.26819 7.44393 8.73451C7.23832 9.49395 6.88785 10.0669 6.38318 10.4444C5.88318 10.8174 5.21028 10.9995 4.36916 10.9995ZM4.49533 9.80039C4.79852 9.80737 5.09408 9.70953 5.3271 9.52504C5.56075 9.34295 5.72897 9.06316 5.8271 8.68122C5.96262 8.15716 6.06542 7.70417 6.13551 7.31334C6.15998 7.19483 6.17249 7.07438 6.1729 6.95361C6.1729 6.44732 5.8972 6.19417 5.34112 6.19417C5.03521 6.18793 4.73698 6.28556 4.5 6.46952C4.27103 6.65161 4.10748 6.9314 4.00935 7.31334C3.90187 7.6864 3.79907 8.1394 3.69159 8.68122C3.66689 8.7967 3.65436 8.91423 3.65421 9.03207C3.64953 9.54725 3.93458 9.80039 4.49533 9.80039Z" fill="white"/>
<path d="M8.21028 10.9197C8.18238 10.9215 8.15442 10.9172 8.12851 10.9072C8.10261 10.8972 8.07943 10.8817 8.06075 10.8619C8.03237 10.8165 8.0224 10.7628 8.03271 10.7109L9.24299 5.29273C9.24751 5.26249 9.25856 5.23346 9.27545 5.20748C9.29234 5.18149 9.3147 5.15911 9.34112 5.14173C9.38814 5.10399 9.44782 5.08351 9.50935 5.08399H11.8411C12.4907 5.08399 13.0093 5.21279 13.4019 5.46593C13.7991 5.72352 14 6.09214 14 6.57622C13.9983 6.72257 13.9811 6.86839 13.9486 7.01145C13.8037 7.65098 13.5093 8.12174 13.0608 8.42818C12.6215 8.73462 12.0187 8.88562 11.2523 8.88562H10.0701L9.66823 10.7109C9.65718 10.7714 9.62203 10.8255 9.5701 10.8619C9.52308 10.8997 9.4634 10.9202 9.40187 10.9197H8.21028ZM11.3131 7.73536C11.5429 7.74101 11.7681 7.67383 11.9533 7.54439C12.1435 7.41034 12.275 7.21423 12.3224 6.99369C12.3398 6.91178 12.3492 6.82853 12.3505 6.74498C12.3505 6.5851 12.2991 6.46075 12.2009 6.37637C12.1028 6.28755 11.9299 6.24313 11.6916 6.24313H10.6402L10.3084 7.73536H11.3131Z" fill="white"/>
</g>
<defs>
<clipPath id="clip0_619_2146">
<rect width="12" height="6" fill="white" transform="translate(2 5)"/>
</clipPath>
</defs>
</svg>
