<svg xmlns="http://www.w3.org/2000/svg" width="117" height="150" viewBox="0 0 225 288"><path style="stroke:none;fill-rule:evenodd;fill:#4da2ff;fill-opacity:1" d="M180.074 120.113c11.7 14.7 18.75 33.375 18.75 53.625s-7.199 39.45-19.273 54.301l-1.051 1.274-.3-1.649c-.223-1.351-.524-2.777-.825-4.203-6-26.473-25.648-49.2-58.05-67.649-21.825-12.375-34.348-27.3-37.65-44.25-2.1-10.949-.527-21.976 2.473-31.425 3.079-9.45 7.579-17.325 11.403-22.051l12.597-15.375c2.176-2.7 6.375-2.7 8.551 0zm19.875-15.375-84.3-103.05c-1.575-1.95-4.649-1.95-6.223 0L25.05 104.737l-.301.375C9.3 124.387 0 148.836 0 175.461c0 62.027 50.398 112.351 112.5 112.351S225 237.488 225 175.462c0-26.625-9.3-51.074-24.824-70.348zM45.227 119.813l7.5-9.227.222 1.727c.153 1.351.375 2.699.676 4.05 4.875 25.575 22.352 46.95 51.45 63.45 25.35 14.398 40.05 30.976 44.323 49.199 1.801 7.574 2.102 15.074 1.352 21.601l-.074.375-.375.149c-11.403 5.55-24.301 8.699-37.875 8.699-47.625 0-86.25-38.547-86.25-86.098 0-20.402 7.125-39.226 19.05-53.925zm0 0"/></svg>