<svg width="33" height="32" viewBox="0 0 33 32" fill="none" xmlns="http://www.w3.org/2000/svg">
<rect x="0.5" width="32" height="32" rx="4" fill="#161616"/>
<path d="M11.8155 24H8.58926C7.91132 24 7.57646 24 7.37225 23.8771C7.15174 23.743 7.01696 23.5202 7.00063 23.2748C6.98837 23.0484 7.15582 22.7721 7.49069 22.2196L15.4567 9.02734C15.7957 8.46715 15.9672 8.18704 16.1836 8.08345C16.4164 7.97218 16.6941 7.97218 16.9269 8.08345C17.1434 8.18704 17.3149 8.46715 17.6538 9.02734L19.2915 11.7132C19.6631 12.3233 19.8509 12.6303 19.9326 12.9526C20.0225 13.3017 20.0225 13.6701 19.9326 14.0192C19.8509 14.3415 19.6672 14.6485 19.2955 15.2585L15.1112 22.2081C14.7355 22.8258 14.5476 23.1366 14.2863 23.3706C14.0044 23.6238 13.6655 23.808 13.2939 23.9117C12.9549 24 12.5751 24 11.8155 24Z" fill="#89898A"/>
<path d="M23.5668 24H19.4295C18.8192 24 18.5122 24 18.3331 23.8871C18.1358 23.7634 18.0152 23.5549 18.0005 23.329C17.9896 23.1206 18.1431 22.8663 18.4501 22.3541L20.5149 18.928C20.8184 18.423 20.9719 18.1722 21.1619 18.0768C21.3702 17.9744 21.6151 17.9744 21.8234 18.0768C22.0172 18.1722 22.1669 18.423 22.474 18.9245L24.5463 22.3506C24.8531 22.8627 25.0104 23.117 24.9995 23.3254C24.9885 23.5514 24.8641 23.7599 24.6669 23.8834C24.4841 24 24.177 24 23.5668 24Z" fill="#89898A"/>
</svg>
