<svg width="87" height="40" viewBox="0 0 87 40" fill="none" xmlns="http://www.w3.org/2000/svg">
<rect width="40" height="40" rx="4" fill="#0688F0"/>
<g clip-path="url(#clip0_722_4693)">
<path d="M12.9133 15.5326C16.8272 11.7118 23.1729 11.7118 27.0867 15.5326L27.5578 15.9924C27.6042 16.0371 27.6411 16.0907 27.6663 16.1502C27.6915 16.2096 27.7046 16.2737 27.7046 16.3384C27.7046 16.403 27.6915 16.4671 27.6663 16.5265C27.6411 16.586 27.6042 16.6397 27.5578 16.6843L25.9464 18.2573C25.8987 18.3033 25.8353 18.3289 25.7693 18.3289C25.7033 18.3289 25.6398 18.3033 25.5921 18.2573L24.9439 17.6245C22.2135 14.959 17.7866 14.959 15.0561 17.6245L14.362 18.3022C14.3142 18.3482 14.2508 18.3738 14.1848 18.3738C14.1188 18.3738 14.0554 18.3482 14.0076 18.3022L12.3963 16.7291C12.3499 16.6845 12.313 16.6309 12.2878 16.5714C12.2625 16.5119 12.2495 16.4479 12.2495 16.3832C12.2495 16.3185 12.2625 16.2545 12.2878 16.1951C12.313 16.1356 12.3499 16.0819 12.3963 16.0373L12.9133 15.5326ZM30.4191 18.7858L31.8532 20.1858C31.8996 20.2304 31.9365 20.2841 31.9618 20.3435C31.987 20.403 32 20.467 32 20.5317C32 20.5964 31.987 20.6604 31.9618 20.7199C31.9365 20.7793 31.8996 20.833 31.8532 20.8776L25.3868 27.1904C25.2913 27.2823 25.1644 27.3337 25.0325 27.3337C24.9005 27.3337 24.7736 27.2824 24.6781 27.1904L20.0886 22.71C20.0648 22.687 20.033 22.6742 20.0001 22.6742C19.9671 22.6742 19.9353 22.687 19.9115 22.71L15.3221 27.1904C15.2266 27.2823 15.0997 27.3337 14.9677 27.3337C14.8358 27.3337 14.7089 27.2824 14.6134 27.1904L8.14677 20.8775C8.10039 20.8329 8.06347 20.7792 8.03824 20.7198C8.01301 20.6603 8 20.5963 8 20.5316C8 20.4669 8.01301 20.4029 8.03824 20.3434C8.06347 20.284 8.10039 20.2303 8.14677 20.1857L9.58087 18.7857C9.67637 18.6937 9.80325 18.6424 9.93521 18.6424C10.0672 18.6424 10.194 18.6937 10.2895 18.7857L14.8791 23.2661C14.903 23.2891 14.9347 23.3019 14.9677 23.3019C15.0007 23.3019 15.0324 23.2891 15.0563 23.2661L19.6456 18.7857C19.7411 18.6937 19.868 18.6424 19.9999 18.6424C20.1319 18.6424 20.2588 18.6937 20.3543 18.7857L24.9438 23.2661C24.9677 23.2891 24.9994 23.3019 25.0324 23.3019C25.0654 23.3019 25.0971 23.2891 25.121 23.2661L29.7105 18.7858C29.806 18.6938 29.9329 18.6425 30.0648 18.6425C30.1968 18.6425 30.3237 18.6938 30.4191 18.7858Z" fill="white"/>
</g>
<rect x="47" width="40" height="40" rx="4" fill="#013330"/>
<g clip-path="url(#clip1_722_4693)">
<path d="M78.213 32.0422L72.6319 30.386L68.4232 32.8934L65.4867 32.8922L61.2754 30.386L55.697 32.0422L54 26.333L55.697 19.9967L54 14.6396L55.697 8L64.4137 13.1903H69.496L78.213 8L79.9099 14.6396L78.213 19.9967L79.9099 26.333L78.213 32.0422Z" fill="#FF5C16"/>
<path d="M55.6973 8L64.4142 13.194L64.0676 16.7586L55.6973 8ZM61.2759 26.3354L65.1113 29.2473L61.2759 30.386V26.3354ZM64.8048 21.5213L64.0676 16.7609L59.3492 19.9982L59.3466 19.9969V19.9993L59.3613 23.3314L61.2746 21.5215L64.8048 21.5213ZM78.2122 8L69.4952 13.194L69.8407 16.7586L78.2122 8ZM72.6337 26.3354L68.7982 29.2473L72.6337 30.386V26.3354ZM74.5615 19.9991V19.9967L74.5604 19.998L69.842 16.7609L69.1048 21.5213H72.6335L74.5482 23.331L74.5615 19.9991Z" fill="#FF5C16"/>
<path d="M61.2754 30.3859L55.697 32.0421L54 26.3353H61.2754V30.3859ZM64.8043 21.52L65.8699 28.4021L64.393 24.5755L59.3597 23.331L61.2741 21.5202H64.8043V21.52ZM72.6343 30.3859L78.213 32.0421L79.9099 26.3353H72.6343V30.3859ZM69.1056 21.52L68.04 28.4021L69.5167 24.5755L74.5503 23.331L72.6345 21.5202H69.1056V21.52Z" fill="#E34807"/>
<path d="M54 26.3331L55.697 19.9968H59.3461L59.3595 23.33L64.3932 24.5746L65.8699 28.401L65.1108 29.2437L61.2754 26.3319H54V26.3331ZM79.9099 26.3331L78.213 19.9968H74.5636L74.5503 23.33L69.5169 24.5746L68.04 28.401L68.7989 29.2437L72.6345 26.3319H79.9099V26.3331ZM69.496 13.1904H64.4137L64.0686 16.755L65.8701 28.3974H68.04L69.8426 16.755L69.496 13.1904Z" fill="#FF8D5D"/>
<path d="M55.697 8L54 14.6396L55.697 19.9967H59.3461L64.0671 16.7586L55.697 8ZM63.7496 22.9024H62.0964L61.1963 23.7818L64.3943 24.5719L63.7496 22.9013V22.9024ZM78.213 8L79.9099 14.6396L78.213 19.9967H74.5636L69.8428 16.7586L78.213 8ZM70.1627 22.9024H71.8182L72.7184 23.7828L69.5167 24.5745L70.1627 22.9011V22.9024ZM68.4219 30.6223L68.7991 29.246L68.04 28.4033H65.8685L65.1095 29.246L65.4865 30.6223" fill="#661800"/>
<path d="M68.4216 30.6221V32.8945H65.4863V30.6221H68.4216Z" fill="#C0C4CD"/>
<path d="M61.2773 30.3838L65.4897 32.8937V30.6212L65.1125 29.2451L61.2773 30.3838ZM72.6351 30.3838L68.4226 32.8937V30.6212L68.7998 29.2451L72.6351 30.3838Z" fill="#E7EBF6"/>
</g>
<rect x="34" y="11" width="21" height="21" rx="4" fill="#6780E3" stroke="#232323" stroke-width="2"/>
<g clip-path="url(#clip2_722_4693)">
<path d="M44.6963 14.375L44.6055 14.6982V24.0743L44.6963 24.1693L48.8512 21.5966L44.6963 14.375Z" fill="#C2CBF3"/>
<path d="M44.696 14.375L40.541 21.5966L44.696 24.1693V19.6183V14.375Z" fill="white"/>
<path d="M44.6977 24.9932L44.6465 25.0586V28.3985L44.6977 28.555L48.8551 22.4219L44.6977 24.9932Z" fill="#C0CAF2"/>
<path d="M44.696 28.555V24.9932L40.541 22.4219L44.696 28.555Z" fill="white"/>
<path d="M44.6973 24.1691L48.8522 21.5965L44.6973 19.6182V24.1691Z" fill="#8598E8"/>
<path d="M40.541 21.5965L44.696 24.1691V19.6182L40.541 21.5965Z" fill="#C2CBF3"/>
</g>
<defs>
<clipPath id="clip0_722_4693">
<rect width="24" height="14.6667" fill="white" transform="translate(8 12.667)"/>
</clipPath>
<clipPath id="clip1_722_4693">
<rect width="26" height="25" fill="white" transform="translate(54 8)"/>
</clipPath>
<clipPath id="clip2_722_4693">
<rect width="8.3125" height="14.1801" fill="white" transform="translate(40.541 14.375)"/>
</clipPath>
</defs>
</svg>
