<svg width="32" height="32" viewBox="0 0 32 32" fill="none" xmlns="http://www.w3.org/2000/svg">
<rect width="32" height="32" rx="4" fill="#161616"/>
<g clip-path="url(#clip0_3717_1640)">
<path d="M11.1725 16.9573C11.776 16.9573 12.3648 16.7561 12.8407 16.3881L9.01363 12.561C8.0912 13.7533 8.312 15.4706 9.50429 16.393C9.98513 16.7561 10.569 16.9573 11.1725 16.9573Z" fill="#89898A"/>
<path d="M22.5557 14.2243C22.5557 13.6207 22.3545 13.032 21.9865 12.556L18.1594 16.3831C19.3517 17.3056 21.0641 17.0848 21.9865 15.8925C22.3545 15.4165 22.5557 14.8278 22.5557 14.2243Z" fill="#89898A"/>
<path d="M24.4839 10.0586L22.7911 11.7514C24.1551 13.3852 23.9393 15.8189 22.3054 17.1829C20.8727 18.3801 18.7923 18.3801 17.3596 17.1829L15.5 19.0425L13.6453 17.1878C12.0114 18.5518 9.5778 18.3359 8.21378 16.7021C7.01659 15.2693 7.01659 13.189 8.21378 11.7563L7.34533 10.8878L6.52103 10.0586C5.525 11.6974 5 13.5815 5 15.4999C5 21.2995 9.70047 25.9999 15.5 25.9999C21.2995 25.9999 26 21.2995 26 15.4999C26.0049 13.5815 25.475 11.6974 24.4839 10.0586Z" fill="#89898A"/>
<path d="M23.0953 8.25307C19.0965 4.05798 12.453 3.90097 8.25795 7.8998C8.13529 8.01755 8.01753 8.13531 7.90468 8.25307C7.64464 8.52784 7.39931 8.81241 7.1687 9.11171L15.5 17.4479L23.8313 9.11171C23.6056 8.81241 23.3554 8.52784 23.0953 8.25307ZM15.5 6.37386C17.9533 6.37386 20.2397 7.32083 21.957 9.04793L15.5 15.5049L9.043 9.04793C10.7603 7.32083 13.0467 6.37386 15.5 6.37386Z" fill="#89898A"/>
</g>
<defs>
<clipPath id="clip0_3717_1640">
<rect width="21" height="21" fill="white" transform="translate(5 5)"/>
</clipPath>
</defs>
</svg>
