<svg width="32" height="32" viewBox="0 0 32 32" fill="none" xmlns="http://www.w3.org/2000/svg">
<rect width="32" height="32" rx="4" fill="#161616"/>
<g clip-path="url(#clip0_3710_1577)">
<path d="M16.3327 4L16.1797 4.54426V20.3357L16.3327 20.4956L23.3304 16.1627L16.3327 4Z" fill="#89898A"/>
<path d="M16.3319 4L9.33398 16.1627L16.3319 20.4956V12.8309V4Z" fill="#89898A"/>
<path d="M16.3333 21.8835L16.2471 21.9936V27.6188L16.3333 27.8824L23.3353 17.5529L16.3333 21.8835Z" fill="#89898A"/>
<path d="M16.3319 27.8824V21.8835L9.33398 17.5529L16.3319 27.8824Z" fill="#89898A"/>
<path d="M16.334 20.4956L23.3317 16.1627L16.334 12.8308V20.4956Z" fill="#89898A"/>
<path d="M9.33398 16.1627L16.3319 20.4956V12.8308L9.33398 16.1627Z" fill="#89898A"/>
</g>
<defs>
<clipPath id="clip0_3710_1577">
<rect width="14" height="23.8824" fill="white" transform="translate(9.33398 4)"/>
</clipPath>
</defs>
</svg>
