<svg width="32" height="32" viewBox="0 0 32 32" fill="none" xmlns="http://www.w3.org/2000/svg">
<rect width="32" height="32" rx="4" fill="#161616"/>
<g clip-path="url(#clip0_3710_1602)">
<path d="M15.982 26.6693C18.0527 26.6656 20.0775 26.0593 21.8094 24.9243C23.5413 23.7894 24.9054 22.1749 25.7353 20.2779C26.5653 18.3808 26.8251 16.2832 26.4831 14.241C26.1412 12.1988 25.2122 10.3003 23.8095 8.77707C22.4069 7.25386 20.5912 6.17183 18.5841 5.66301C16.5769 5.15418 14.4651 5.24055 12.5062 5.91159C10.5473 6.58262 8.82603 7.8093 7.55245 9.44196C6.27888 11.0746 5.50804 13.0427 5.33398 15.106H19.4575V16.8992H5.33398C5.56175 19.5658 6.78244 22.0496 8.75439 23.859C10.7263 25.6683 13.3058 26.6713 15.982 26.6693Z" fill="#89898A"/>
</g>
<defs>
<clipPath id="clip0_3710_1602">
<rect width="21.3333" height="21.3333" fill="white" transform="translate(5.33398 5.33594)"/>
</clipPath>
</defs>
</svg>
