<svg width="32" height="32" viewBox="0 0 32 32" fill="none" xmlns="http://www.w3.org/2000/svg">
<rect width="32" height="32" rx="4" fill="#161616"/>
<g clip-path="url(#clip0_3717_1672)">
<path d="M17.0541 16.7402L16.0377 19.447C16.0125 19.5203 16.0125 19.6019 16.0377 19.6834L17.7849 24.3387L19.8093 23.2055L17.3817 16.7402C17.3229 16.5934 17.1129 16.5934 17.0541 16.7402Z" fill="#89898A"/>
<path d="M19.0953 12.1909C19.0365 12.0441 18.8265 12.0441 18.7677 12.1909L17.7513 14.8977C17.7261 14.971 17.7261 15.0526 17.7513 15.1341L20.6157 22.7571L22.6401 21.6238L19.0953 12.199V12.1909Z" fill="#89898A"/>
<path d="M15.5001 6.26371C15.5505 6.26371 15.6009 6.28001 15.6429 6.30447L23.3541 10.6255C23.4465 10.6744 23.4969 10.7723 23.4969 10.8701V19.5122C23.4969 19.6101 23.4381 19.7079 23.3541 19.7568L15.6429 24.0779C15.6009 24.1023 15.5505 24.1186 15.5001 24.1186C15.4497 24.1186 15.3993 24.1023 15.3573 24.0779L7.64607 19.7568C7.55367 19.7079 7.50327 19.6101 7.50327 19.5122V10.862C7.50327 10.7641 7.56207 10.6663 7.64607 10.6174L15.3573 6.29632C15.3993 6.27186 15.4497 6.25555 15.5001 6.25555V6.26371ZM15.5001 5C15.2229 5 14.9541 5.06522 14.7021 5.20382L6.99087 9.52488C6.49527 9.80208 6.19287 10.3076 6.19287 10.862V19.5041C6.19287 20.0585 6.49527 20.564 6.99087 20.8412L14.7021 25.1622C14.9457 25.3008 15.2229 25.366 15.5001 25.366C15.7773 25.366 16.0461 25.3008 16.2981 25.1622L24.0093 20.8412C24.5049 20.564 24.8073 20.0585 24.8073 19.5041V10.862C24.8073 10.3076 24.5049 9.80208 24.0093 9.52488L16.2897 5.20382C16.0461 5.06522 15.7689 5 15.4917 5H15.5001Z" fill="#89898A"/>
<path d="M14.8448 10.2505H12.8876C12.7448 10.2505 12.6104 10.3401 12.56 10.4706L8.36841 21.6238L10.3928 22.7571L15.0128 10.4706C15.0548 10.3565 14.9708 10.2423 14.8532 10.2423L14.8448 10.2505Z" fill="#89898A"/>
<path d="M18.272 10.2505H16.3148C16.172 10.2505 16.0376 10.3401 15.9872 10.4706L11.1992 23.2055L13.2236 24.3387L18.4316 10.4706C18.4736 10.3565 18.3896 10.2423 18.272 10.2423V10.2505Z" fill="#89898A"/>
</g>
<defs>
<clipPath id="clip0_3717_1672">
<rect width="21" height="20.3824" fill="#89898A" transform="translate(5 5)"/>
</clipPath>
</defs>
</svg>
